<svg width="1920" height="102" viewBox="0 0 1920 102" fill="none" xmlns="http://www.w3.org/2000/svg">
<rect width="1930.35" height="56.017" transform="matrix(0.999725 -0.0234479 0.0389853 0.99924 -6 45.2627)" fill="url(#paint0_linear_72_38)"/>
<path d="M371.771 75.8121C367.462 65.2248 367.097 65.0544 356.321 68.5395C366.853 64.3985 367.018 64.0363 363.362 53.2153C367.671 63.8027 368.036 63.9731 378.812 60.488C368.28 64.6307 368.114 64.9878 371.771 75.8121Z" fill="#38262B"/>
<path d="M405.126 69.1337L404.672 57.5062L412.375 57.3255L412.454 59.3524L407.211 59.4753L407.319 62.246L412.051 62.135L412.13 64.1618L407.398 64.2728L407.586 69.076L405.126 69.1337ZM416.489 57.229L416.942 68.8565L414.483 68.9142L414.029 57.2867L416.489 57.229ZM426.373 60.7591C426.282 60.4847 426.161 60.2432 426.009 60.0346C425.857 59.8222 425.674 59.6447 425.459 59.5019C425.249 59.3553 425.01 59.2454 424.742 59.1721C424.477 59.0988 424.186 59.0658 423.868 59.0733C423.273 59.0872 422.757 59.2471 422.317 59.5529C421.882 59.8586 421.55 60.2964 421.323 60.8662C421.094 61.4323 420.996 62.1203 421.028 62.9303C421.059 63.7403 421.209 64.4262 421.478 64.9882C421.746 65.5502 422.111 65.9754 422.574 66.2638C423.036 66.5485 423.574 66.6836 424.187 66.6693C424.744 66.6562 425.215 66.5466 425.601 66.3406C425.991 66.1307 426.283 65.8416 426.477 65.4733C426.675 65.105 426.764 64.6729 426.745 64.1771L427.248 64.2392L424.248 64.3095L424.176 62.4586L429.044 62.3445L429.101 63.8093C429.141 64.8312 428.96 65.7144 428.557 66.4588C428.153 67.1994 427.581 67.7773 426.839 68.1925C426.097 68.6039 425.237 68.8211 424.26 68.844C423.17 68.8696 422.202 68.6517 421.358 68.1904C420.514 67.7253 419.843 67.0534 419.346 66.1747C418.853 65.2922 418.583 64.2378 418.535 63.0115C418.498 62.069 418.602 61.2255 418.846 60.4811C419.093 59.7327 419.455 59.0953 419.931 58.569C420.407 58.0426 420.969 57.6373 421.618 57.3531C422.266 57.0689 422.975 56.9178 423.743 56.8997C424.402 56.8843 425.019 56.9664 425.595 57.1461C426.17 57.3221 426.685 57.579 427.137 57.9169C427.594 58.2547 427.972 58.6607 428.271 59.1348C428.57 59.6052 428.77 60.1271 428.872 60.7005L426.373 60.7591ZM430.681 56.8961L433.714 56.825L437.223 64.5621L437.359 64.5589L440.258 56.6715L443.291 56.6004L443.745 68.2279L441.359 68.2839L441.064 60.7157L440.967 60.718L438.25 68.3L436.625 68.3381L433.32 60.8689L433.224 60.8712L433.52 68.4677L431.134 68.5237L430.681 56.8961ZM447.776 68.1333L445.141 68.1952L448.703 56.4734L451.872 56.3991L456.336 67.9326L453.701 67.9944L450.437 59.0923L450.346 59.0944L447.776 68.1333ZM447.433 63.5668L453.659 63.4208L453.734 65.3398L447.508 65.4858L447.433 63.5668Z" fill="#38262B"/>
<path d="M497.05 72.8738C492.741 62.2865 492.376 62.116 481.6 65.6011C492.132 61.4601 492.297 61.098 488.64 50.277C492.949 60.8643 493.315 61.0348 504.091 57.5496C493.559 61.6923 493.392 62.0495 497.05 72.8738Z" fill="#38262B"/>
<path d="M530.545 66.1919L530.092 54.5644L532.551 54.5067L532.738 59.3042L537.731 59.1871L537.544 54.3896L539.998 54.332L540.452 65.9596L537.998 66.0171L537.811 61.2139L532.818 61.331L533.005 66.1342L530.545 66.1919ZM541.662 56.3217L541.583 54.2949L551.137 54.0708L551.216 56.0976L547.655 56.1812L548.029 65.7818L545.598 65.8388L545.224 56.2382L541.662 56.3217ZM552.711 54.0339L555.744 53.9627L559.252 61.6998L559.389 61.6966L562.287 53.8093L565.321 53.7381L565.774 65.3656L563.389 65.4216L563.093 57.8535L562.997 57.8557L560.279 65.4377L558.655 65.4758L555.35 58.0067L555.254 58.0089L555.55 65.6054L553.164 65.6614L552.711 54.0339ZM567.801 65.3181L567.347 53.6906L569.807 53.6329L570.181 63.2335L575.169 63.1166L575.248 65.1434L567.801 65.3181Z" fill="#38262B"/>
<path d="M616.33 70.0762C612.021 59.4888 611.656 59.3184 600.88 62.8035C611.412 58.6625 611.577 58.3004 607.921 47.4794C612.23 58.0667 612.595 58.2372 623.371 54.752C612.84 58.8947 612.673 59.2519 616.33 70.0762Z" fill="#38262B"/>
<path d="M659.467 55.6045L656.979 55.6628C656.921 55.3422 656.817 55.0586 656.668 54.8121C656.518 54.5618 656.329 54.3502 656.103 54.1775C655.876 54.0048 655.617 53.8744 655.326 53.7866C655.038 53.6986 654.727 53.6585 654.394 53.6663C653.792 53.6805 653.273 53.8423 652.838 54.1518C652.403 54.4575 652.073 54.8971 651.849 55.4706C651.625 56.0404 651.529 56.7283 651.56 57.5345C651.593 58.3635 651.743 59.057 652.011 59.6152C652.283 60.1733 652.648 60.5909 653.106 60.8681C653.564 61.1453 654.087 61.277 654.673 61.2632C655.003 61.2555 655.306 61.2048 655.583 61.1112C655.864 61.0175 656.11 60.8848 656.324 60.7131C656.537 60.5376 656.71 60.3271 656.845 60.0815C656.983 59.8358 657.074 59.5571 657.119 59.2454L659.607 59.1984C659.564 59.7335 659.423 60.2521 659.185 60.754C658.95 61.252 658.625 61.7009 658.208 62.1009C657.796 62.497 657.296 62.8156 656.711 63.0567C656.129 63.2938 655.465 63.4212 654.719 63.4387C653.681 63.463 652.744 63.2501 651.908 62.7999C651.075 62.3497 650.405 61.6854 649.897 60.807C649.393 59.9285 649.116 58.8572 649.067 57.593C649.017 56.3251 649.214 55.2407 649.656 54.3401C650.098 53.4394 650.72 52.7467 651.519 52.262C652.319 51.7734 653.23 51.5172 654.253 51.4932C654.927 51.4774 655.555 51.5574 656.138 51.7331C656.725 51.9088 657.249 52.173 657.71 52.5259C658.171 52.875 658.551 53.3074 658.852 53.8232C659.156 54.3389 659.361 54.9326 659.467 55.6045ZM667.513 54.6884C667.45 54.2315 667.241 53.8803 666.887 53.6347C666.532 53.3892 666.06 53.2734 665.469 53.2873C665.067 53.2967 664.731 53.3614 664.459 53.4814C664.187 53.5977 663.98 53.7559 663.84 53.9562C663.704 54.1564 663.641 54.3814 663.651 54.6312C663.651 54.8396 663.702 55.0203 663.803 55.1732C663.907 55.3261 664.047 55.4573 664.222 55.5669C664.396 55.6726 664.597 55.7645 664.824 55.8426C665.05 55.9168 665.291 55.9793 665.547 56.0302L666.602 56.2555C667.114 56.3571 667.586 56.4976 668.017 56.6769C668.449 56.8562 668.825 57.0803 669.147 57.3494C669.468 57.6184 669.721 57.9383 669.906 58.309C670.095 58.6796 670.201 59.1071 670.223 59.5915C670.247 60.3032 670.09 60.9244 669.75 61.4552C669.415 61.9821 668.915 62.3972 668.252 62.7007C667.593 63.0003 666.79 63.1612 665.844 63.1834C664.904 63.2054 664.081 63.0808 663.373 62.8095C662.669 62.5381 662.111 62.125 661.698 61.5701C661.29 61.0114 661.06 60.3141 661.009 59.478L663.389 59.4222C663.43 59.8115 663.555 60.1343 663.762 60.3909C663.973 60.6436 664.247 60.8322 664.585 60.9569C664.928 61.0777 665.311 61.1331 665.735 61.1231C666.151 61.1134 666.511 61.0443 666.813 60.916C667.118 60.7876 667.352 60.6135 667.514 60.3938C667.676 60.1741 667.752 59.9241 667.741 59.6441C667.731 59.3829 667.644 59.1652 667.482 58.9909C667.324 58.8166 667.095 58.6704 666.794 58.5524C666.498 58.4344 666.136 58.3292 665.707 58.237L664.428 57.9487C663.438 57.7333 662.649 57.3786 662.061 56.8848C661.474 56.3909 661.165 55.7143 661.135 54.855C661.104 54.1511 661.267 53.5317 661.626 52.9967C661.987 52.4616 662.496 52.0386 663.151 51.7277C663.806 51.4169 664.557 51.2515 665.406 51.2316C666.269 51.2114 667.028 51.3413 667.684 51.6214C668.343 51.9015 668.862 52.3003 669.243 52.818C669.623 53.3357 669.832 53.9407 669.871 54.6331L667.513 54.6884ZM677.995 54.4426C677.932 53.9856 677.723 53.6344 677.368 53.3889C677.014 53.1434 676.541 53.0276 675.95 53.0414C675.549 53.0508 675.212 53.1156 674.94 53.2356C674.668 53.3518 674.462 53.5101 674.322 53.7104C674.186 53.9106 674.123 54.1356 674.132 54.3854C674.133 54.5938 674.183 54.7744 674.284 54.9274C674.389 55.0803 674.528 55.2115 674.703 55.321C674.878 55.4268 675.079 55.5187 675.305 55.5967C675.532 55.671 675.773 55.7335 676.029 55.7843L677.084 56.0096C677.596 56.1113 678.067 56.2517 678.499 56.431C678.93 56.6103 679.307 56.8345 679.628 57.1035C679.949 57.3726 680.203 57.6924 680.388 58.0631C680.576 58.4338 680.682 58.8613 680.705 59.3457C680.729 60.0573 680.571 60.6786 680.232 61.2093C679.896 61.7362 679.397 62.1514 678.734 62.4549C678.075 62.7545 677.272 62.9154 676.325 62.9376C675.386 62.9596 674.562 62.835 673.854 62.5636C673.15 62.2922 672.592 61.8791 672.18 61.3243C671.772 60.7656 671.542 60.0682 671.49 59.2322L673.87 59.1764C673.912 59.5656 674.036 59.8885 674.243 60.1451C674.454 60.3977 674.729 60.5864 675.067 60.711C675.409 60.8318 675.792 60.8873 676.216 60.8773C676.633 60.8675 676.992 60.7985 677.294 60.6702C677.6 60.5418 677.834 60.3677 677.996 60.148C678.158 59.9282 678.233 59.6783 678.222 59.3982C678.212 59.137 678.126 58.9193 677.964 58.7451C677.805 58.5707 677.576 58.4246 677.276 58.3066C676.979 58.1885 676.617 58.0834 676.189 57.9911L674.91 57.7029C673.92 57.4875 673.131 57.1328 672.543 56.6389C671.955 56.1451 671.646 55.4685 671.617 54.6092C671.585 53.9053 671.749 53.2858 672.107 52.7508C672.469 52.2157 672.977 51.7928 673.632 51.4819C674.287 51.171 675.039 51.0057 675.887 50.9858C676.751 50.9655 677.51 51.0955 678.165 51.3756C678.824 51.6556 679.344 52.0545 679.724 52.5722C680.105 53.0898 680.314 53.6949 680.352 54.3873L677.995 54.4426Z" fill="#38262B"/>
<path d="M721.615 67.6067C717.306 57.0194 716.941 56.849 706.165 60.3341C716.697 56.1931 716.862 55.831 713.205 45.01C717.514 55.5973 717.879 55.7678 728.656 52.2826C718.124 56.4253 717.957 56.7824 721.615 67.6067Z" fill="#38262B"/>
<path d="M759.346 49.1874L761.777 49.1304L762.093 57.2378C762.122 57.9873 761.979 58.6422 761.664 59.2027C761.352 59.7632 760.905 60.1999 760.322 60.5128C759.739 60.8258 759.054 60.9915 758.266 61.01C757.566 61.0264 756.925 60.9183 756.343 60.6857C755.766 60.4492 755.3 60.0813 754.947 59.5819C754.594 59.0787 754.404 58.4411 754.378 57.6688L756.826 57.6114C756.846 57.9178 756.918 58.1794 757.044 58.3962C757.174 58.6091 757.345 58.7718 757.558 58.8842C757.774 58.9928 758.027 59.0437 758.314 59.0369C758.617 59.0298 758.87 58.9595 759.074 58.8259C759.281 58.6885 759.434 58.4917 759.534 58.2355C759.634 57.9793 759.677 57.6658 759.662 57.2948L759.346 49.1874ZM766.269 60.6631L763.634 60.725L767.196 49.0033L770.365 48.9289L774.829 60.4624L772.194 60.5242L768.93 51.6221L768.839 51.6242L766.269 60.6631ZM765.926 56.0966L772.152 55.9506L772.227 57.8696L766.001 58.0156L765.926 56.0966ZM776.425 48.7868L779.581 57.555L779.689 57.5525L782.162 48.6522L784.888 48.5883L781.332 60.3099L778.162 60.3842L773.693 48.8509L776.425 48.7868ZM787.201 60.1722L784.565 60.234L788.128 48.5123L791.297 48.438L795.761 59.9714L793.125 60.0333L789.862 51.1311L789.771 51.1333L787.201 60.1722ZM786.858 55.6057L793.083 55.4597L793.158 57.3787L786.933 57.5247L786.858 55.6057ZM806.851 51.4203C806.788 50.9634 806.579 50.6121 806.224 50.3666C805.87 50.1211 805.397 50.0053 804.806 50.0191C804.405 50.0286 804.068 50.0933 803.796 50.2133C803.524 50.3296 803.318 50.4878 803.178 50.6881C803.042 50.8883 802.979 51.1133 802.988 51.3631C802.989 51.5715 803.04 51.7521 803.14 51.9051C803.245 52.058 803.384 52.1892 803.559 52.2987C803.734 52.4045 803.935 52.4964 804.161 52.5744C804.388 52.6487 804.629 52.7112 804.885 52.762L805.94 52.9873C806.452 53.089 806.923 53.2295 807.355 53.4088C807.786 53.5881 808.163 53.8122 808.484 54.0813C808.805 54.3503 809.059 54.6701 809.244 55.0409C809.432 55.4115 809.538 55.839 809.561 56.3234C809.585 57.0351 809.427 57.6563 809.088 58.187C808.752 58.7139 808.253 59.1291 807.59 59.4326C806.931 59.7322 806.128 59.8931 805.181 59.9153C804.242 59.9373 803.418 59.8127 802.71 59.5414C802.006 59.2699 801.448 58.8568 801.036 58.302C800.628 57.7433 800.398 57.046 800.346 56.2099L802.726 56.1541C802.768 56.5433 802.892 56.8662 803.099 57.1228C803.31 57.3754 803.585 57.5641 803.923 57.6888C804.265 57.8096 804.648 57.865 805.072 57.855C805.489 57.8453 805.848 57.7762 806.15 57.6479C806.456 57.5195 806.69 57.3454 806.852 57.1257C807.014 56.9059 807.089 56.656 807.078 56.3759C807.068 56.1148 806.982 55.8971 806.82 55.7228C806.661 55.5485 806.432 55.4023 806.132 55.2843C805.835 55.1663 805.473 55.0611 805.045 54.9689L803.766 54.6806C802.776 54.4652 801.987 54.1105 801.399 53.6166C800.811 53.1228 800.502 52.4462 800.473 51.5869C800.441 50.883 800.605 50.2635 800.963 49.7285C801.325 49.1935 801.833 48.7705 802.488 48.4596C803.143 48.1488 803.895 47.9834 804.743 47.9635C805.607 47.9432 806.366 48.0732 807.021 48.3533C807.68 48.6334 808.2 49.0322 808.58 49.5499C808.961 50.0676 809.17 50.6726 809.208 51.365L806.851 51.4203ZM821.314 51.8084L818.826 51.8668C818.768 51.5461 818.664 51.2625 818.515 51.016C818.365 50.7657 818.176 50.5542 817.95 50.3814C817.723 50.2087 817.464 50.0784 817.173 49.9905C816.885 49.9025 816.574 49.8625 816.241 49.8703C815.639 49.8844 815.12 50.0462 814.685 50.3557C814.25 50.6614 813.92 51.101 813.696 51.6746C813.472 52.2443 813.376 52.9323 813.407 53.7385C813.44 54.5674 813.59 55.2609 813.858 55.8191C814.13 56.3772 814.495 56.7949 814.953 57.0721C815.411 57.3492 815.934 57.4809 816.52 57.4672C816.85 57.4595 817.153 57.4088 817.43 57.3151C817.711 57.2214 817.957 57.0887 818.171 56.917C818.384 56.7416 818.557 56.531 818.692 56.2854C818.83 56.0397 818.921 55.761 818.966 55.4493L821.454 55.4023C821.411 55.9375 821.27 56.456 821.032 56.9579C820.797 57.4559 820.472 57.9049 820.055 58.3049C819.643 58.701 819.143 59.0195 818.558 59.2606C817.976 59.4978 817.312 59.6251 816.566 59.6426C815.528 59.6669 814.591 59.454 813.755 59.0039C812.922 58.5536 812.252 57.8893 811.744 57.0109C811.24 56.1325 810.963 55.0612 810.914 53.797C810.864 52.529 811.061 51.4447 811.503 50.544C811.945 49.6433 812.567 48.9506 813.366 48.4659C814.166 47.9774 815.077 47.7211 816.1 47.6971C816.774 47.6813 817.402 47.7613 817.985 47.937C818.572 48.1127 819.096 48.377 819.557 48.7299C820.018 49.079 820.398 49.5114 820.699 50.0271C821.003 50.5428 821.208 51.1366 821.314 51.8084ZM823.373 59.3238L822.919 47.6963L827.509 47.5887C828.387 47.568 829.143 47.7075 829.777 48.0071C830.414 48.3028 830.906 48.7326 831.254 49.2965C831.606 49.8566 831.796 50.5208 831.826 51.2891C831.856 52.0613 831.716 52.7294 831.404 53.2936C831.093 53.8541 830.626 54.2893 830.005 54.5994C829.388 54.9093 828.633 55.0748 827.739 55.0958L824.666 55.1678L824.589 53.1921L827.264 53.1293C827.734 53.1183 828.122 53.0448 828.427 52.9088C828.733 52.7729 828.956 52.5744 829.097 52.3135C829.243 52.0525 829.308 51.7308 829.293 51.3485C829.278 50.9625 829.188 50.6388 829.022 50.3775C828.86 50.1161 828.619 49.9209 828.3 49.792C827.984 49.6593 827.589 49.5984 827.116 49.6095L825.457 49.6484L825.832 59.2661L823.373 59.3238ZM829.449 53.885L832.546 59.1087L829.831 59.1723L826.796 53.9473L829.449 53.885ZM835.876 47.3924L836.329 59.0199L833.87 59.0776L833.416 47.4501L835.876 47.3924ZM838.353 58.9725L837.899 47.3449L842.489 47.2373C843.371 47.2166 844.13 47.3674 844.764 47.6897C845.398 48.0082 845.889 48.4608 846.238 49.0474C846.591 49.6301 846.782 50.3076 846.812 51.0797C846.842 51.8518 846.702 52.537 846.392 53.1353C846.082 53.7336 845.617 54.2048 844.997 54.5489C844.382 54.893 843.627 55.0755 842.733 55.0964L839.808 55.165L839.731 53.1949L842.259 53.1357C842.732 53.1246 843.119 53.034 843.419 52.8641C843.723 52.6903 843.945 52.4558 844.085 52.1608C844.229 51.862 844.294 51.5214 844.279 51.1391C844.264 50.753 844.173 50.418 844.006 50.134C843.844 49.8461 843.604 49.6263 843.287 49.4746C842.97 49.3191 842.573 49.247 842.096 49.2582L840.437 49.2971L840.813 58.9148L838.353 58.9725ZM847.892 49.1393L847.813 47.1124L857.367 46.8883L857.446 48.9152L853.885 48.9987L854.259 58.5994L851.828 58.6564L851.454 49.0558L847.892 49.1393Z" fill="#38262B"/>
<path d="M898.879 63.4491C894.57 52.8618 894.205 52.6914 883.429 56.1765C893.961 52.0355 894.126 51.6734 890.47 40.8524C894.779 51.4397 895.144 51.6102 905.92 48.125C895.389 52.2677 895.222 52.6249 898.879 63.4491Z" fill="#38262B"/>
<path d="M934.325 56.7215L931.69 56.7834L935.252 45.0616L938.422 44.9873L942.886 56.5208L940.25 56.5826L936.986 47.6805L936.895 47.6826L934.325 56.7215ZM933.982 52.155L940.208 52.009L940.283 53.928L934.057 54.074L933.982 52.155ZM948.41 56.3912L944.286 56.4879L943.832 44.8604L947.99 44.7629C949.16 44.7354 950.177 44.9446 951.039 45.3903C951.902 45.8323 952.577 46.4813 953.065 47.3374C953.557 48.1935 953.827 49.2252 953.874 50.4326C953.921 51.6438 953.733 52.69 953.309 53.5713C952.888 54.4525 952.261 55.1359 951.427 55.6215C950.597 56.1069 949.591 56.3635 948.41 56.3912ZM946.663 54.3239L948.225 54.2872C948.952 54.2702 949.559 54.1272 950.045 53.8581C950.535 53.5853 950.894 53.1734 951.122 52.6225C951.355 52.0677 951.454 51.3569 951.42 50.4901C951.387 49.6309 951.232 48.9318 950.957 48.3927C950.686 47.8535 950.298 47.4611 949.791 47.2153C949.285 46.9696 948.669 46.8552 947.942 46.8723L946.374 46.9091L946.663 54.3239ZM966.387 50.1505C966.436 51.4185 966.238 52.5028 965.791 53.4036C965.349 54.3042 964.724 54.9989 963.917 55.4876C963.113 55.9725 962.199 56.2269 961.172 56.251C960.138 56.2752 959.202 56.0623 958.361 55.6122C957.521 55.1622 956.845 54.498 956.334 53.6197C955.822 52.7414 955.541 51.6702 955.492 50.406C955.442 49.138 955.639 48.0537 956.081 47.153C956.524 46.2524 957.147 45.5596 957.95 45.0748C958.754 44.5862 959.672 44.3298 960.706 44.3055C961.732 44.2814 962.666 44.4944 963.506 44.9445C964.349 45.3907 965.027 46.0529 965.539 46.9312C966.055 47.8094 966.337 48.8825 966.387 50.1505ZM963.893 50.209C963.861 49.3876 963.711 48.6979 963.443 48.1397C963.178 47.5814 962.819 47.1617 962.365 46.8807C961.91 46.5996 961.386 46.4661 960.791 46.48C960.197 46.4939 959.683 46.6518 959.252 46.9537C958.82 47.2555 958.492 47.6913 958.268 48.261C958.048 48.8307 957.953 49.5262 957.986 50.3475C958.018 51.1689 958.166 51.8587 958.43 52.417C958.698 52.9752 959.06 53.3948 959.514 53.6758C959.968 53.9569 960.493 54.0904 961.087 54.0765C961.682 54.0625 962.195 53.9047 962.627 53.6028C963.058 53.301 963.384 52.8652 963.605 52.2956C963.829 51.7259 963.925 51.0303 963.893 50.209ZM968.435 55.9215L967.982 44.294L972.64 44.1847C973.495 44.1647 974.214 44.2747 974.796 44.5149C975.378 44.7551 975.821 45.097 976.126 45.5407C976.432 45.9806 976.596 46.4919 976.618 47.0748C976.636 47.529 976.561 47.9305 976.393 48.2792C976.224 48.6241 975.985 48.91 975.675 49.137C975.37 49.3602 975.016 49.5219 974.614 49.6222L974.619 49.7358C975.062 49.7443 975.482 49.8595 975.877 50.0813C976.276 50.3031 976.605 50.6193 976.864 51.0299C977.122 51.4368 977.263 51.926 977.285 52.4975C977.309 53.1145 977.177 53.6688 976.889 54.1605C976.605 54.6483 976.171 55.0392 975.587 55.3332C975.004 55.6273 974.277 55.7845 973.406 55.8049L968.435 55.9215ZM970.817 53.854L972.822 53.807C973.507 53.7909 974.002 53.6486 974.306 53.38C974.61 53.1077 974.753 52.752 974.736 52.313C974.724 51.9912 974.635 51.7092 974.47 51.4668C974.305 51.2244 974.076 51.0366 973.783 50.9033C973.493 50.7699 973.152 50.7078 972.758 50.7171L970.696 50.7654L970.817 53.854ZM970.631 49.1019L972.454 49.0592C972.792 49.0512 973.088 48.9856 973.345 48.8621C973.605 48.7348 973.807 48.5596 973.95 48.3365C974.097 48.1133 974.164 47.8484 974.152 47.5418C974.136 47.1217 973.973 46.7865 973.664 46.5361C973.358 46.2856 972.933 46.1668 972.388 46.1796L970.519 46.2234L970.631 49.1019ZM979.011 55.6735L978.557 44.046L986.396 43.8621L986.475 45.889L981.096 46.0151L981.204 48.7858L986.18 48.669L986.259 50.6959L981.283 50.8126L981.391 53.5889L986.793 53.4622L986.872 55.4891L979.011 55.6735ZM992.507 55.3569L992.053 43.7294L996.643 43.6218C997.525 43.6011 998.283 43.7519 998.918 44.0742C999.552 44.3927 1000.04 44.8452 1000.39 45.4318C1000.74 46.0146 1000.94 46.692 1000.97 47.4642C1001 48.2363 1000.86 48.9215 1000.55 49.5198C1000.24 50.1181 999.771 50.5893 999.151 50.9334C998.535 51.2774 997.781 51.4599 996.887 51.4809L993.962 51.5495L993.885 49.5794L996.412 49.5201C996.886 49.509 997.273 49.4185 997.573 49.2485C997.877 49.0747 998.099 48.8403 998.239 48.5453C998.383 48.2464 998.447 47.9059 998.433 47.5236C998.417 47.1375 998.327 46.8025 998.16 46.5184C997.997 46.2305 997.758 46.0108 997.441 45.8591C997.124 45.7036 996.727 45.6315 996.25 45.6427L994.591 45.6816L994.966 55.2992L992.507 55.3569ZM1002.86 55.114L1002.41 43.4865L1004.87 43.4288L1005.06 48.2263L1010.05 48.1092L1009.86 43.3117L1012.32 43.2542L1012.77 54.8817L1010.32 54.9392L1010.13 50.1361L1005.14 50.2532L1005.32 55.0563L1002.86 55.114ZM1025.26 48.7696C1025.31 50.0376 1025.11 51.122 1024.67 52.0227C1024.22 52.9234 1023.6 53.6181 1022.79 54.1068C1021.99 54.5916 1021.07 54.846 1020.05 54.8701C1019.01 54.8944 1018.08 54.6814 1017.24 54.2314C1016.4 53.7813 1015.72 53.1171 1015.21 52.2389C1014.7 51.3606 1014.42 50.2893 1014.37 49.0251C1014.32 47.7572 1014.51 46.6728 1014.96 45.7722C1015.4 44.8715 1016.02 44.1788 1016.82 43.6939C1017.63 43.2053 1018.55 42.9489 1019.58 42.9247C1020.61 42.9006 1021.54 43.1136 1022.38 43.5636C1023.22 44.0098 1023.9 44.6721 1024.41 45.5504C1024.93 46.4286 1025.21 47.5016 1025.26 48.7696ZM1022.77 48.8281C1022.74 48.0068 1022.59 47.317 1022.32 46.7588C1022.05 46.2005 1021.69 45.7808 1021.24 45.4998C1020.78 45.2187 1020.26 45.0852 1019.67 45.0991C1019.07 45.1131 1018.56 45.271 1018.13 45.5728C1017.69 45.8746 1017.37 46.3104 1017.14 46.8802C1016.92 47.4498 1016.83 48.1453 1016.86 48.9667C1016.89 49.788 1017.04 50.4778 1017.3 51.0361C1017.57 51.5943 1017.93 52.0139 1018.39 52.295C1018.84 52.576 1019.37 52.7096 1019.96 52.6956C1020.56 52.6817 1021.07 52.5238 1021.5 52.222C1021.93 51.9201 1022.26 51.4844 1022.48 50.9147C1022.7 50.345 1022.8 49.6494 1022.77 48.8281ZM1025.96 44.9628L1025.88 42.936L1035.44 42.7119L1035.52 44.7388L1031.95 44.8223L1032.33 54.4229L1029.9 54.48L1029.52 44.8793L1025.96 44.9628ZM1047.4 48.2505C1047.45 49.5184 1047.25 50.6028 1046.8 51.5036C1046.36 52.4042 1045.73 53.0989 1044.93 53.5876C1044.12 54.0724 1043.21 54.3269 1042.18 54.351C1041.15 54.3752 1040.21 54.1623 1039.37 53.7122C1038.53 53.2622 1037.85 52.598 1037.34 51.7197C1036.83 50.8414 1036.55 49.7702 1036.5 48.506C1036.45 47.238 1036.65 46.1537 1037.09 45.253C1037.53 44.3524 1038.16 43.6596 1038.96 43.1748C1039.76 42.6862 1040.68 42.4297 1041.72 42.4055C1042.74 42.3814 1043.67 42.5944 1044.51 43.0445C1045.36 43.4907 1046.04 44.1529 1046.55 45.0312C1047.06 45.9094 1047.35 46.9825 1047.4 48.2505ZM1044.9 48.3089C1044.87 47.4876 1044.72 46.7978 1044.45 46.2396C1044.19 45.6814 1043.83 45.2617 1043.37 44.9806C1042.92 44.6996 1042.39 44.566 1041.8 44.58C1041.21 44.5939 1040.69 44.7518 1040.26 45.0537C1039.83 45.3555 1039.5 45.7913 1039.28 46.361C1039.06 46.9307 1038.96 47.6262 1038.99 48.4475C1039.03 49.2688 1039.17 49.9587 1039.44 50.5169C1039.71 51.0751 1040.07 51.4948 1040.52 51.7758C1040.98 52.0569 1041.5 52.1904 1042.1 52.1765C1042.69 52.1625 1043.2 52.0046 1043.64 51.7028C1044.07 51.401 1044.39 50.9652 1044.61 50.3956C1044.84 49.8258 1044.93 49.1303 1044.9 48.3089ZM1055.43 45.59C1055.37 45.1331 1055.16 44.7819 1054.81 44.5364C1054.45 44.2908 1053.98 44.175 1053.39 44.1889C1052.99 44.1983 1052.65 44.263 1052.38 44.383C1052.11 44.4993 1051.9 44.6576 1051.76 44.8578C1051.62 45.058 1051.56 45.283 1051.57 45.5328C1051.57 45.7412 1051.62 45.9219 1051.72 46.0748C1051.83 46.2277 1051.97 46.3589 1052.14 46.4685C1052.31 46.5742 1052.52 46.6661 1052.74 46.7442C1052.97 46.8184 1053.21 46.8809 1053.47 46.9318L1054.52 47.1571C1055.03 47.2587 1055.5 47.3992 1055.94 47.5785C1056.37 47.7578 1056.74 47.982 1057.07 48.251C1057.39 48.52 1057.64 48.8399 1057.82 49.2106C1058.01 49.5812 1058.12 50.0087 1058.14 50.4931C1058.17 51.2048 1058.01 51.826 1057.67 52.3568C1057.33 52.8837 1056.83 53.2988 1056.17 53.6023C1055.51 53.9019 1054.71 54.0628 1053.76 54.085C1052.82 54.107 1052 53.9824 1051.29 53.7111C1050.59 53.4397 1050.03 53.0266 1049.62 52.4717C1049.21 51.9131 1048.98 51.2157 1048.93 50.3796L1051.31 50.3238C1051.35 50.7131 1051.47 51.036 1051.68 51.2925C1051.89 51.5452 1052.17 51.7338 1052.5 51.8585C1052.85 51.9793 1053.23 52.0347 1053.65 52.0248C1054.07 52.015 1054.43 51.9459 1054.73 51.8176C1055.04 51.6892 1055.27 51.5151 1055.43 51.2954C1055.59 51.0757 1055.67 50.8257 1055.66 50.5457C1055.65 50.2845 1055.56 50.0668 1055.4 49.8925C1055.24 49.7182 1055.01 49.572 1054.71 49.4541C1054.42 49.336 1054.05 49.2308 1053.63 49.1386L1052.35 48.8504C1051.36 48.6349 1050.57 48.2802 1049.98 47.7864C1049.39 47.2925 1049.08 46.6159 1049.05 45.7566C1049.02 45.0527 1049.19 44.4333 1049.54 43.8983C1049.91 43.3632 1050.41 42.9402 1051.07 42.6294C1051.72 42.3185 1052.48 42.1531 1053.32 42.1332C1054.19 42.113 1054.95 42.2429 1055.6 42.523C1056.26 42.8031 1056.78 43.2019 1057.16 43.7196C1057.54 44.2373 1057.75 44.8423 1057.79 45.5347L1055.43 45.59ZM1059.93 53.7757L1059.47 42.1481L1061.93 42.0904L1062.12 46.8879L1067.11 46.7708L1066.92 41.9733L1069.38 41.9158L1069.83 53.5433L1067.38 53.6009L1067.19 48.7977L1062.2 48.9148L1062.39 53.718L1059.93 53.7757ZM1082.32 47.4312C1082.37 48.6992 1082.17 49.7836 1081.73 50.6843C1081.29 51.585 1080.66 52.2797 1079.85 52.7684C1079.05 53.2532 1078.14 53.5077 1077.11 53.5317C1076.08 53.556 1075.14 53.3431 1074.3 52.893C1073.46 52.4429 1072.78 51.7788 1072.27 50.9005C1071.76 50.0222 1071.48 48.951 1071.43 47.6868C1071.38 46.4188 1071.58 45.3345 1072.02 44.4338C1072.46 43.5332 1073.08 42.8404 1073.89 42.3556C1074.69 41.867 1075.61 41.6105 1076.64 41.5863C1077.67 41.5622 1078.6 41.7752 1079.44 42.2253C1080.29 42.6715 1080.96 43.3337 1081.48 44.212C1081.99 45.0902 1082.27 46.1633 1082.32 47.4312ZM1079.83 47.4897C1079.8 46.6684 1079.65 45.9786 1079.38 45.4204C1079.12 44.8622 1078.76 44.4425 1078.3 44.1614C1077.85 43.8804 1077.32 43.7468 1076.73 43.7608C1076.13 43.7747 1075.62 43.9326 1075.19 44.2344C1074.76 44.5363 1074.43 44.9721 1074.2 45.5418C1073.98 46.1115 1073.89 46.8069 1073.92 47.6283C1073.95 48.4496 1074.1 49.1394 1074.37 49.6977C1074.64 50.2559 1075 50.6755 1075.45 50.9566C1075.91 51.2377 1076.43 51.3712 1077.02 51.3573C1077.62 51.3433 1078.13 51.1854 1078.56 50.8836C1079 50.5818 1079.32 50.146 1079.54 49.5764C1079.77 49.0066 1079.86 48.3111 1079.83 47.4897ZM1084.37 53.2023L1083.92 41.5748L1088.51 41.4671C1089.39 41.4464 1090.15 41.5972 1090.78 41.9195C1091.42 42.238 1091.91 42.6906 1092.26 43.2772C1092.61 43.8599 1092.8 44.5374 1092.83 45.3095C1092.86 46.0816 1092.72 46.7669 1092.41 47.3651C1092.1 47.9634 1091.64 48.4346 1091.02 48.7787C1090.4 49.1228 1089.65 49.3053 1088.75 49.3262L1085.83 49.3948L1085.75 47.4248L1088.28 47.3655C1088.75 47.3544 1089.14 47.2638 1089.44 47.0939C1089.74 46.9201 1089.96 46.6857 1090.1 46.3907C1090.25 46.0918 1090.31 45.7512 1090.3 45.3689C1090.28 44.9829 1090.19 44.6478 1090.03 44.3638C1089.86 44.0759 1089.62 43.8561 1089.31 43.7044C1088.99 43.549 1088.59 43.4768 1088.12 43.488L1086.46 43.5269L1086.83 53.1446L1084.37 53.2023Z" fill="#38262B"/>
<path d="M1134.13 57.9315C1129.82 47.3442 1129.45 47.1737 1118.68 50.6589C1129.21 46.5178 1129.37 46.1557 1125.72 35.3347C1130.03 45.9221 1130.39 46.0925 1141.17 42.6074C1130.64 46.7501 1130.47 47.1072 1134.13 57.9315Z" fill="#38262B"/>
<path d="M1167.5 51.2527L1167.04 39.6252L1171.63 39.5175C1172.52 39.4968 1173.28 39.6476 1173.91 39.9699C1174.54 40.2884 1175.03 40.741 1175.38 41.3276C1175.74 41.9103 1175.93 42.5878 1175.96 43.3599C1175.99 44.1321 1175.85 44.8173 1175.54 45.4155C1175.23 46.0138 1174.76 46.485 1174.14 46.8292C1173.53 47.1732 1172.77 47.3557 1171.88 47.3767L1168.95 47.4453L1168.88 45.4752L1171.4 45.4159C1171.88 45.4048 1172.26 45.3143 1172.56 45.1443C1172.87 44.9705 1173.09 44.7361 1173.23 44.4411C1173.37 44.1422 1173.44 43.8016 1173.42 43.4193C1173.41 43.0333 1173.32 42.6982 1173.15 42.4142C1172.99 42.1263 1172.75 41.9065 1172.43 41.7548C1172.12 41.5994 1171.72 41.5272 1171.24 41.5384L1169.58 41.5773L1169.96 51.195L1167.5 51.2527ZM1176.72 39.3983L1179.47 39.3336L1182.32 44.279L1182.44 44.2763L1184.89 39.2065L1187.65 39.1419L1183.7 46.7585L1183.86 50.869L1181.42 50.9263L1181.26 46.8157L1176.72 39.3983ZM1189.36 41.1305L1189.28 39.1036L1198.84 38.8795L1198.92 40.9064L1195.35 40.9899L1195.73 50.5906L1193.3 50.6476L1192.92 41.0469L1189.36 41.1305ZM1200.86 50.4701L1200.41 38.8426L1202.87 38.7849L1203.06 43.5824L1208.05 43.4653L1207.86 38.6678L1210.32 38.6103L1210.77 50.2378L1208.32 50.2953L1208.13 45.4922L1203.14 45.6093L1203.32 50.4124L1200.86 50.4701ZM1223.26 44.1257C1223.31 45.3937 1223.11 46.4781 1222.67 47.3788C1222.22 48.2795 1221.6 48.9742 1220.79 49.4629C1219.99 49.9477 1219.07 50.2021 1218.05 50.2262C1217.01 50.2505 1216.08 50.0375 1215.24 49.5875C1214.4 49.1374 1213.72 48.4732 1213.21 47.595C1212.7 46.7167 1212.42 45.6454 1212.37 44.3812C1212.32 43.1133 1212.51 42.029 1212.96 41.1283C1213.4 40.2276 1214.02 39.5349 1214.83 39.05C1215.63 38.5614 1216.55 38.305 1217.58 38.2808C1218.61 38.2567 1219.54 38.4697 1220.38 38.9197C1221.22 39.3659 1221.9 40.0282 1222.41 40.9065C1222.93 41.7847 1223.21 42.8577 1223.26 44.1257ZM1220.77 44.1842C1220.74 43.3629 1220.59 42.6731 1220.32 42.1149C1220.05 41.5566 1219.69 41.137 1219.24 40.8559C1218.79 40.5748 1218.26 40.4413 1217.67 40.4552C1217.07 40.4692 1216.56 40.6271 1216.13 40.9289C1215.7 41.2307 1215.37 41.6665 1215.14 42.2363C1214.92 42.8059 1214.83 43.5014 1214.86 44.3228C1214.89 45.1441 1215.04 45.8339 1215.31 46.3922C1215.57 46.9504 1215.93 47.37 1216.39 47.6511C1216.84 47.9321 1217.37 48.0657 1217.96 48.0517C1218.56 48.0378 1219.07 47.8799 1219.5 47.5781C1219.93 47.2762 1220.26 46.8405 1220.48 46.2708C1220.7 45.7011 1220.8 45.0055 1220.77 44.1842ZM1234.59 38.041L1235.04 49.6685L1232.92 49.7184L1227.57 42.5188L1227.48 42.5208L1227.77 49.8391L1225.31 49.8967L1224.86 38.2692L1227.02 38.2186L1232.32 45.4134L1232.42 45.411L1232.14 38.0984L1234.59 38.041Z" fill="#38262B"/>
<path d="M1276.4 54.5945C1272.09 44.0072 1271.73 43.8368 1260.95 47.3219C1271.48 43.1809 1271.65 42.8188 1267.99 31.9978C1272.3 42.5851 1272.67 42.7556 1283.44 39.2704C1272.91 43.4131 1272.74 43.7702 1276.4 54.5945Z" fill="#38262B"/>
<path d="M1309.71 47.9172L1309.26 36.2897L1313.85 36.182C1314.73 36.1613 1315.49 36.3121 1316.12 36.6344C1316.76 36.9529 1317.25 37.4055 1317.6 37.9921C1317.95 38.5748 1318.14 39.2523 1318.17 40.0244C1318.2 40.7966 1318.06 41.4818 1317.75 42.08C1317.44 42.6783 1316.97 43.1495 1316.35 43.4936C1315.74 43.8377 1314.98 44.0202 1314.09 44.0411L1311.17 44.1098L1311.09 42.1397L1313.62 42.0804C1314.09 42.0693 1314.48 41.9787 1314.78 41.8088C1315.08 41.635 1315.3 41.4006 1315.44 41.1056C1315.59 40.8067 1315.65 40.4661 1315.64 40.0838C1315.62 39.6978 1315.53 39.3627 1315.36 39.0787C1315.2 38.7908 1314.96 38.571 1314.64 38.4193C1314.33 38.2639 1313.93 38.1917 1313.45 38.2029L1311.79 38.2418L1312.17 47.8595L1309.71 47.9172ZM1320.07 47.6743L1319.61 36.0468L1324.2 35.9391C1325.08 35.9185 1325.84 36.058 1326.47 36.3576C1327.11 36.6533 1327.6 37.0831 1327.95 37.647C1328.3 38.207 1328.49 38.8712 1328.52 39.6396C1328.55 40.4117 1328.41 41.0799 1328.1 41.6441C1327.79 42.2045 1327.32 42.6398 1326.7 42.9498C1326.08 43.2598 1325.33 43.4253 1324.43 43.4462L1321.36 43.5183L1321.28 41.5425L1323.96 41.4798C1324.43 41.4688 1324.82 41.3953 1325.12 41.2593C1325.43 41.1233 1325.65 40.9249 1325.79 40.664C1325.94 40.4029 1326 40.0813 1325.99 39.699C1325.97 39.3129 1325.88 38.9892 1325.72 38.7279C1325.55 38.4665 1325.31 38.2714 1324.99 38.1425C1324.68 38.0097 1324.28 37.9489 1323.81 37.96L1322.15 37.9989L1322.53 47.6166L1320.07 47.6743ZM1326.14 42.2355L1329.24 47.4591L1326.53 47.5228L1323.49 42.2977L1326.14 42.2355ZM1341.03 41.3636C1341.08 42.6316 1340.88 43.7159 1340.43 44.6167C1339.99 45.5173 1339.36 46.212 1338.56 46.7007C1337.75 47.1856 1336.84 47.44 1335.81 47.4641C1334.78 47.4883 1333.84 47.2754 1333 46.8253C1332.16 46.3753 1331.49 45.7111 1330.97 44.8328C1330.46 43.9545 1330.18 42.8833 1330.13 41.6191C1330.08 40.3511 1330.28 39.2668 1330.72 38.3662C1331.16 37.4655 1331.79 36.7727 1332.59 36.2879C1333.39 35.7993 1334.31 35.5429 1335.35 35.5186C1336.37 35.4945 1337.31 35.7075 1338.15 36.1576C1338.99 36.6038 1339.67 37.266 1340.18 38.1443C1340.7 39.0225 1340.98 40.0956 1341.03 41.3636ZM1338.53 41.4221C1338.5 40.6007 1338.35 39.911 1338.08 39.3528C1337.82 38.7945 1337.46 38.3748 1337.01 38.0938C1336.55 37.8127 1336.03 37.6792 1335.43 37.6931C1334.84 37.707 1334.32 37.8649 1333.89 38.1668C1333.46 38.4686 1333.13 38.9044 1332.91 39.4741C1332.69 40.0438 1332.59 40.7393 1332.63 41.5606C1332.66 42.382 1332.81 43.0718 1333.07 43.6301C1333.34 44.1883 1333.7 44.6079 1334.15 44.8889C1334.61 45.17 1335.13 45.3035 1335.73 45.2896C1336.32 45.2756 1336.84 45.1178 1337.27 44.8159C1337.7 44.5141 1338.03 44.0783 1338.25 43.5087C1338.47 42.939 1338.57 42.2434 1338.53 41.4221ZM1350.48 39.0847C1350.39 38.8102 1350.27 38.5687 1350.12 38.3601C1349.97 38.1478 1349.78 37.9702 1349.57 37.8275C1349.36 37.6809 1349.12 37.5709 1348.85 37.4977C1348.59 37.4243 1348.3 37.3914 1347.98 37.3988C1347.38 37.4128 1346.87 37.5727 1346.43 37.8785C1345.99 38.1842 1345.66 38.6219 1345.43 39.1918C1345.2 39.7578 1345.11 40.4458 1345.14 41.2558C1345.17 42.0658 1345.32 42.7518 1345.59 43.3138C1345.86 43.8757 1346.22 44.3009 1346.68 44.5894C1347.15 44.874 1347.68 45.0092 1348.3 44.9948C1348.85 44.9817 1349.33 44.8722 1349.71 44.6661C1350.1 44.4562 1350.39 44.1671 1350.59 43.7989C1350.79 43.4305 1350.87 42.9984 1350.85 42.5026L1351.36 42.5647L1348.36 42.635L1348.29 40.7842L1353.15 40.67L1353.21 42.1348C1353.25 43.1567 1353.07 44.0399 1352.67 44.7843C1352.26 45.525 1351.69 46.1029 1350.95 46.5181C1350.21 46.9295 1349.35 47.1466 1348.37 47.1695C1347.28 47.1951 1346.31 46.9772 1345.47 46.5159C1344.62 46.0508 1343.95 45.3789 1343.46 44.5003C1342.96 43.6178 1342.69 42.5633 1342.65 41.337C1342.61 40.3945 1342.71 39.5511 1342.96 38.8066C1343.2 38.0583 1343.57 37.4209 1344.04 36.8945C1344.52 36.3681 1345.08 35.9628 1345.73 35.6786C1346.38 35.3944 1347.08 35.2433 1347.85 35.2253C1348.51 35.2098 1349.13 35.292 1349.71 35.4717C1350.28 35.6476 1350.79 35.9045 1351.25 36.2424C1351.7 36.5803 1352.08 36.9862 1352.38 37.4604C1352.68 37.9307 1352.88 38.4526 1352.98 39.0261L1350.48 39.0847ZM1355.24 46.8492L1354.79 35.2217L1359.38 35.114C1360.26 35.0934 1361.02 35.2329 1361.65 35.5325C1362.29 35.8282 1362.78 36.258 1363.13 36.8219C1363.48 37.382 1363.67 38.0461 1363.7 38.8145C1363.73 39.5866 1363.59 40.2548 1363.28 40.819C1362.96 41.3794 1362.5 41.8147 1361.88 42.1248C1361.26 42.4347 1360.5 42.6002 1359.61 42.6212L1356.54 42.6932L1356.46 40.7175L1359.14 40.6547C1359.61 40.6437 1359.99 40.5702 1360.3 40.4342C1360.6 40.2983 1360.83 40.0998 1360.97 39.8389C1361.11 39.5779 1361.18 39.2562 1361.16 38.8739C1361.15 38.4878 1361.06 38.1642 1360.89 37.9028C1360.73 37.6415 1360.49 37.4463 1360.17 37.3174C1359.86 37.1847 1359.46 37.1238 1358.99 37.1349L1357.33 37.1738L1357.7 46.7915L1355.24 46.8492ZM1361.32 41.4104L1364.42 46.634L1361.7 46.6977L1358.67 41.4726L1361.32 41.4104ZM1367.75 46.556L1365.11 46.6178L1368.67 34.8961L1371.84 34.8217L1376.31 46.3552L1373.67 46.417L1370.41 37.5149L1370.32 37.517L1367.75 46.556ZM1367.4 41.9894L1373.63 41.8434L1373.7 43.7624L1367.48 43.9084L1367.4 41.9894ZM1377.25 34.6948L1380.29 34.6237L1383.8 42.3608L1383.93 42.3576L1386.83 34.4702L1389.86 34.3991L1390.32 46.0266L1387.93 46.0825L1387.64 38.5144L1387.54 38.5167L1384.82 46.0986L1383.2 46.1368L1379.89 38.6676L1379.8 38.6699L1380.09 46.2664L1377.71 46.3224L1377.25 34.6948ZM1391.89 34.3515L1394.92 34.2804L1398.43 42.0175L1398.57 42.0143L1401.47 34.1269L1404.5 34.0558L1404.95 45.6833L1402.57 45.7393L1402.27 38.1712L1402.18 38.1734L1399.46 45.7554L1397.83 45.7935L1394.53 38.3244L1394.43 38.3266L1394.73 45.9231L1392.34 45.9791L1391.89 34.3515ZM1408.99 33.9506L1409.44 45.5781L1406.98 45.6358L1406.53 34.0083L1408.99 33.9506ZM1420.74 33.6749L1421.19 45.3024L1419.07 45.3522L1413.72 38.1526L1413.64 38.1546L1413.92 45.4729L1411.46 45.5306L1411.01 33.9031L1413.17 33.8525L1418.48 41.0473L1418.58 41.0449L1418.29 33.7323L1420.74 33.6749ZM1430.63 37.2048C1430.54 36.9304 1430.42 36.6889 1430.27 36.4803C1430.12 36.2679 1429.93 36.0904 1429.72 35.9476C1429.51 35.801 1429.27 35.6911 1429 35.6178C1428.74 35.5445 1428.45 35.5115 1428.13 35.519C1427.53 35.5329 1427.02 35.6928 1426.58 35.9986C1426.14 36.3043 1425.81 36.7421 1425.58 37.3119C1425.35 37.8779 1425.26 38.5659 1425.29 39.3759C1425.32 40.1859 1425.47 40.8719 1425.74 41.4339C1426.01 41.9959 1426.37 42.4211 1426.83 42.7095C1427.3 42.9942 1427.83 43.1293 1428.45 43.1149C1429 43.1019 1429.48 42.9923 1429.86 42.7863C1430.25 42.5763 1430.54 42.2872 1430.74 41.919C1430.93 41.5507 1431.02 41.1186 1431 40.6227L1431.51 40.6848L1428.51 40.7552L1428.44 38.9043L1433.3 38.7901L1433.36 40.2549C1433.4 41.2769 1433.22 42.1601 1432.82 42.9045C1432.41 43.6451 1431.84 44.223 1431.1 44.6382C1430.36 45.0496 1429.5 45.2668 1428.52 45.2897C1427.43 45.3153 1426.46 45.0974 1425.62 44.636C1424.77 44.1709 1424.1 43.4991 1423.61 42.6204C1423.11 41.7379 1422.84 40.6835 1422.8 39.4571C1422.76 38.5147 1422.86 37.6712 1423.11 36.9267C1423.35 36.1784 1423.71 35.541 1424.19 35.0146C1424.67 34.4882 1425.23 34.0829 1425.88 33.7987C1426.53 33.5146 1427.23 33.3635 1428 33.3454C1428.66 33.33 1429.28 33.4121 1429.85 33.5918C1430.43 33.7677 1430.94 34.0247 1431.4 34.3626C1431.85 34.7004 1432.23 35.1064 1432.53 35.5805C1432.83 36.0508 1433.03 36.5727 1433.13 37.1462L1430.63 37.2048Z" fill="#38262B"/>
<path d="M1474.66 49.9445C1470.35 39.3572 1469.99 39.1867 1459.21 42.6719C1469.74 38.5308 1469.91 38.1687 1466.25 27.3477C1470.56 37.9351 1470.93 38.1055 1481.7 34.6204C1471.17 38.7631 1471 39.1202 1474.66 49.9445Z" fill="#38262B"/>
<path d="M1512.28 43.1659L1508.16 43.2626L1507.7 31.6351L1511.86 31.5376C1513.03 31.5102 1514.05 31.7193 1514.91 32.1651C1515.77 32.607 1516.45 33.2561 1516.94 34.1122C1517.43 34.9682 1517.7 35.9999 1517.74 37.2073C1517.79 38.4185 1517.6 39.4648 1517.18 40.3461C1516.76 41.2273 1516.13 41.9106 1515.3 42.3962C1514.47 42.8816 1513.46 43.1382 1512.28 43.1659ZM1510.53 41.0986L1512.1 41.062C1512.82 41.0449 1513.43 40.9019 1513.92 40.6329C1514.41 40.36 1514.76 39.9481 1514.99 39.3972C1515.23 38.8424 1515.32 38.1316 1515.29 37.2649C1515.26 36.4057 1515.1 35.7065 1514.83 35.1674C1514.56 34.6283 1514.17 34.2358 1513.66 33.9901C1513.16 33.7443 1512.54 33.63 1511.81 33.647L1510.24 33.6838L1510.53 41.0986ZM1519.79 42.9897L1519.34 31.3622L1527.18 31.1783L1527.26 33.2052L1521.88 33.3314L1521.99 36.102L1526.96 35.9853L1527.04 38.0121L1522.07 38.1288L1522.17 40.9051L1527.58 40.7784L1527.66 42.8053L1519.79 42.9897ZM1535.58 34.3285C1535.51 33.8716 1535.3 33.5204 1534.95 33.2748C1534.59 33.0293 1534.12 32.9135 1533.53 32.9274C1533.13 32.9368 1532.79 33.0015 1532.52 33.1215C1532.25 33.2378 1532.04 33.396 1531.9 33.5963C1531.77 33.7965 1531.7 34.0215 1531.71 34.2713C1531.71 34.4797 1531.76 34.6603 1531.87 34.8133C1531.97 34.9662 1532.11 35.0974 1532.28 35.207C1532.46 35.3127 1532.66 35.4046 1532.89 35.4827C1533.11 35.5569 1533.35 35.6194 1533.61 35.6703L1534.66 35.8956C1535.18 35.9972 1535.65 36.1377 1536.08 36.317C1536.51 36.4963 1536.89 36.7204 1537.21 36.9895C1537.53 37.2585 1537.78 37.5784 1537.97 37.9491C1538.16 38.3197 1538.26 38.7472 1538.29 39.2316C1538.31 39.9433 1538.15 40.5645 1537.81 41.0953C1537.48 41.6222 1536.98 42.0373 1536.31 42.3408C1535.66 42.6404 1534.85 42.8013 1533.91 42.8235C1532.97 42.8455 1532.14 42.7209 1531.44 42.4496C1530.73 42.1782 1530.17 41.7651 1529.76 41.2102C1529.35 40.6515 1529.12 39.9542 1529.07 39.1181L1531.45 39.0623C1531.49 39.4515 1531.62 39.7744 1531.82 40.031C1532.04 40.2837 1532.31 40.4723 1532.65 40.597C1532.99 40.7178 1533.37 40.7732 1533.8 40.7632C1534.21 40.7535 1534.57 40.6844 1534.88 40.5561C1535.18 40.4277 1535.41 40.2536 1535.58 40.0339C1535.74 39.8142 1535.81 39.5642 1535.8 39.2841C1535.79 39.023 1535.71 38.8053 1535.54 38.631C1535.39 38.4567 1535.16 38.3105 1534.86 38.1925C1534.56 38.0745 1534.2 37.9693 1533.77 37.8771L1532.49 37.5888C1531.5 37.3734 1530.71 37.0187 1530.12 36.5249C1529.54 36.031 1529.23 35.3544 1529.2 34.4951C1529.17 33.7912 1529.33 33.1718 1529.69 32.6368C1530.05 32.1017 1530.56 31.6787 1531.21 31.3678C1531.87 31.057 1532.62 30.8916 1533.47 30.8717C1534.33 30.8515 1535.09 30.9814 1535.75 31.2615C1536.41 31.5416 1536.92 31.9404 1537.31 32.4581C1537.69 32.9758 1537.89 33.5808 1537.93 34.2732L1535.58 34.3285ZM1542.08 30.8289L1542.53 42.4565L1540.07 42.5141L1539.62 30.8866L1542.08 30.8289ZM1551.96 34.3591C1551.87 34.0846 1551.75 33.8431 1551.6 33.6345C1551.44 33.4221 1551.26 33.2446 1551.05 33.1019C1550.84 32.9553 1550.6 32.8453 1550.33 32.7721C1550.06 32.6987 1549.77 32.6658 1549.45 32.6732C1548.86 32.6872 1548.34 32.847 1547.9 33.1528C1547.47 33.4585 1547.14 33.8963 1546.91 34.4661C1546.68 35.0322 1546.58 35.7202 1546.61 36.5302C1546.65 37.3402 1546.8 38.0262 1547.06 38.5881C1547.33 39.1501 1547.7 39.5753 1548.16 39.8638C1548.62 40.1484 1549.16 40.2836 1549.77 40.2692C1550.33 40.2561 1550.8 40.1466 1551.19 39.9405C1551.58 39.7306 1551.87 39.4415 1552.06 39.0732C1552.26 38.7049 1552.35 38.2728 1552.33 37.777L1552.83 37.8391L1549.84 37.9094L1549.76 36.0586L1554.63 35.9444L1554.69 37.4092C1554.73 38.4311 1554.55 39.3143 1554.14 40.0587C1553.74 40.7993 1553.17 41.3773 1552.43 41.7924C1551.68 42.2039 1550.82 42.421 1549.85 42.4439C1548.76 42.4695 1547.79 42.2516 1546.95 41.7903C1546.1 41.3252 1545.43 40.6533 1544.93 39.7747C1544.44 38.8921 1544.17 37.8377 1544.12 36.6114C1544.09 35.6689 1544.19 34.8254 1544.43 34.081C1544.68 33.3326 1545.04 32.6953 1545.52 32.1689C1545.99 31.6425 1546.56 31.2372 1547.2 30.953C1547.85 30.6688 1548.56 30.5177 1549.33 30.4997C1549.99 30.4842 1550.61 30.5663 1551.18 30.7461C1551.76 30.922 1552.27 31.1789 1552.72 31.5168C1553.18 31.8546 1553.56 32.2606 1553.86 32.7347C1554.16 33.2051 1554.36 33.727 1554.46 34.3004L1551.96 34.3591ZM1566 30.2678L1566.45 41.8954L1564.33 41.9452L1558.98 34.7456L1558.9 34.7476L1559.18 42.0659L1556.72 42.1236L1556.27 30.4961L1558.43 30.4454L1563.73 37.6403L1563.84 37.6379L1563.55 30.3253L1566 30.2678Z" fill="#38262B"/>
<defs>
<linearGradient id="paint0_linear_72_38" x1="-396.126" y1="-3.52563" x2="-316.73" y2="449.475" gradientUnits="userSpaceOnUse">
<stop stop-color="#FBEEF7"/>
<stop offset="1" stop-color="#C982B3"/>
</linearGradient>
</defs>
</svg>
